<svg id="Camada_1" data-name="Camada 1" xmlns="http://www.w3.org/2000/svg" viewBox="0 0 371 401"><defs><style>.cls-1{fill:#eedea3;}</style></defs><title>lupa-png</title><path class="cls-1" d="M208.94,268.57A113,113,0,0,1,57.05,242.94C23.17,198.77,27,136.55,66.35,95.68,104.57,56,166.84,50.76,212.52,83.36c46.9,33.47,62.8,101.18,28,153.69l16.35,14.08q32.64,28,65.31,56.1c7.52,6.43,11.86,14.34,11.77,24.37-.11,12.16-8.41,23.74-20.23,28.38a29,29,0,0,1-32.52-7.59c-8.1-8.9-15.78-18.18-23.63-27.3l-47.44-55.17C209.82,269.5,209.44,269.11,208.94,268.57ZM146.63,90.65a84,84,0,1,0,84,84.15A84,84,0,0,0,146.63,90.65Z"/></svg>