<svg xmlns="http://www.w3.org/2000/svg" viewBox="0 0 330 364"><defs><style>.cls-1{fill:#fcb631;}</style></defs><title>estrela</title><g id="pagina-home"><path class="cls-1" d="M316.59,143.1A23.14,23.14,0,0,0,314,145q-35.07,34.14-70.14,68.26c-2.39,2.31-3.24,4.5-2.66,7.82,5.49,31.34,10.83,62.71,16.21,94.06.33,1.94.64,3.88,1.05,6.43l-3.73-1.92q-43.26-22.74-86.48-45.55a7.84,7.84,0,0,0-8.25.05q-43,22.82-86.19,45.4l-4,2c1.47-8.62,2.85-16.8,4.25-25,4.42-25.74,8.9-51.46,13.11-77.23.28-1.72-1-4.24-2.39-5.59-19.57-19.27-39.31-38.36-58.91-57.59-4.61-4.52-8.86-9.4-13.29-14.14,6.82-1,14.12-2.13,21.43-3.19q39.59-5.73,79.18-11.39c2.83-.4,4.36-1.9,5.59-4.39Q140.31,79.26,162,35.47c.56-1.14,1.16-2.27,2-3.91.84,1.56,1.46,2.65,2,3.78q21.65,43.82,43.2,87.66a7.56,7.56,0,0,0,6.47,4.63q47.25,6.74,94.48,13.67l5.86.83C316.22,142.46,316.41,142.78,316.59,143.1Z"/></g></svg>